PathFileType	4	(X/Y/Z)	 0.06m3min.trc
DataRate	CameraRate	NumFrames	NumMarkers	Units	OrigDataRate	OrigDataStartFrame	OrigNumFrames
200	200	10	35	m	200	873	997
Frame#	Time	C7			LSH			RSH			MAN			RASI			LASI			HIPR			HIPL			RPSI			LPSI			COX			RTHI1			RTHI2			RTHI3			RTHI4			RSHA1			RSHA2			RSHA3			RSHA4			RHEEL			RMET5			RMET1			RTOE			LTHI1			LTHI2			LTHI3			LTHI4			LSHA1			LSHA2			LSHA3			LSHA4			LHEEL			LMET5			LMET1			LTOE			
		X1	Y1	Z1	X2	Y2	Z2	X3	Y3	Z3	X4	Y4	Z4	X5	Y5	Z5	X6	Y6	Z6	X7	Y7	Z7	X8	Y8	Z8	X9	Y9	Z9	X10	Y10	Z10	X11	Y11	Z11	X12	Y12	Z12	X13	Y13	Z13	X14	Y14	Z14	X15	Y15	Z15	X16	Y16	Z16	X17	Y17	Z17	X18	Y18	Z18	X19	Y19	Z19	X20	Y20	Z20	X21	Y21	Z21	X22	Y22	Z22	X23	Y23	Z23	X24	Y24	Z24	X25	Y25	Z25	X26	Y26	Z26	X27	Y27	Z27	X28	Y28	Z28	X29	Y29	Z29	X30	Y30	Z30	X31	Y31	Z31	X32	Y32	Z32	X33	Y33	Z33	X34	Y34	Z34	X35	Y35	Z35	
873	4.3650	-0.282256	1.611880	-0.542049	-0.237899	1.585206	-0.783285	-0.180288	1.589768	-0.337507	-0.126093	1.558983	-0.567602	-0.114334	1.086993	-0.444537	-0.136296	1.093578	-0.675177	-0.184427	1.156243	-0.388282	-0.208930	1.152317	-0.714703	-0.301758	1.127327	-0.489116	-0.310497	1.132957	-0.593373	-0.311511	1.134228	-0.537946	-0.208503	0.855721	-0.359431	-0.195436	0.798934	-0.350082	-0.131486	0.812067	-0.346161	-0.137635	0.872415	-0.356676	-0.288636	0.409283	-0.347070	-0.307085	0.370594	-0.351638	-0.249641	0.351360	-0.355717	-0.236107	0.389012	-0.355163	-0.427910	0.089488	-0.429374	-0.251542	0.026666	-0.356067	-0.210699	0.039952	-0.446032	-0.180558	0.028825	-0.442755	-0.203296	0.839749	-0.757060	-0.187986	0.780581	-0.764024	-0.124488	0.791263	-0.766698	-0.130697	0.851207	-0.760358	-0.313044	0.372277	-0.746108	-0.331331	0.336727	-0.740771	-0.273147	0.313365	-0.744465	-0.261912	0.355703	-0.750173	-0.445259	0.097061	-0.663084	-0.288468	0.024972	-0.760324	-0.226744	0.036528	-0.678584	-0.195748	0.026961	-0.687977	
874	4.3700	-0.282288	1.615341	-0.542200	-0.237795	1.589105	-0.783310	-0.180519	1.593757	-0.337599	-0.126071	1.562785	-0.567592	-0.113142	1.090594	-0.444448	-0.134958	1.097177	-0.675130	-0.182852	1.160336	-0.388375	-0.207023	1.156529	-0.714697	-0.300434	1.131078	-0.489084	-0.309115	1.136682	-0.593553	-0.310194	1.137850	-0.538048	-0.208664	0.859554	-0.359345	-0.195966	0.802659	-0.349971	-0.131946	0.815436	-0.345808	-0.137716	0.875836	-0.356357	-0.289987	0.412522	-0.347078	-0.308327	0.373825	-0.351471	-0.250766	0.354798	-0.355090	-0.237401	0.392510	-0.354614	-0.426893	0.092214	-0.428686	-0.251393	0.026655	-0.356049	-0.210649	0.039946	-0.445908	-0.180665	0.028835	-0.442755	-0.203328	0.843471	-0.757066	-0.188390	0.784198	-0.764086	-0.124840	0.794511	-0.766975	-0.130699	0.854466	-0.760586	-0.313964	0.375213	-0.746416	-0.332097	0.339559	-0.741115	-0.273859	0.316418	-0.745041	-0.262796	0.358827	-0.750679	-0.444306	0.099636	-0.664177	-0.288140	0.025038	-0.760316	-0.226734	0.036516	-0.678734	-0.195824	0.026953	-0.687944	
875	4.3750	-0.282328	1.618918	-0.542366	-0.237722	1.593166	-0.783330	-0.180784	1.597934	-0.337706	-0.126055	1.566749	-0.567596	-0.111939	1.094332	-0.444378	-0.133613	1.100884	-0.675096	-0.181167	1.164652	-0.388506	-0.205025	1.160889	-0.714705	-0.299081	1.135028	-0.489054	-0.307705	1.140585	-0.593757	-0.308861	1.141667	-0.538159	-0.208838	0.863534	-0.359278	-0.196511	0.806560	-0.349798	-0.132432	0.818981	-0.345469	-0.137814	0.879405	-0.356030	-0.291317	0.415908	-0.347157	-0.309534	0.377196	-0.351330	-0.251848	0.358410	-0.354470	-0.238671	0.396164	-0.354074	-0.425765	0.095082	-0.428023	-0.251245	0.026654	-0.356057	-0.210582	0.039947	-0.445770	-0.180779	0.028855	-0.442751	-0.203354	0.847344	-0.757101	-0.188795	0.787970	-0.764168	-0.125193	0.797910	-0.767272	-0.130706	0.857863	-0.760821	-0.314867	0.378280	-0.746668	-0.332834	0.342520	-0.741395	-0.274541	0.319611	-0.745593	-0.263662	0.362104	-0.751160	-0.443231	0.102337	-0.665196	-0.287798	0.025126	-0.760253	-0.226713	0.036506	-0.678900	-0.195891	0.026947	-0.687913	
876	4.3800	-0.282371	1.622590	-0.542546	-0.237667	1.597362	-0.783339	-0.181075	1.602270	-0.337822	-0.126041	1.570843	-0.567617	-0.110734	1.098181	-0.444329	-0.132271	1.104685	-0.675072	-0.179392	1.169155	-0.388675	-0.202984	1.165353	-0.714701	-0.297709	1.139157	-0.489026	-0.306280	1.144646	-0.593976	-0.307521	1.145652	-0.538283	-0.209022	0.867615	-0.359220	-0.197057	0.810596	-0.349603	-0.132936	0.822641	-0.345128	-0.137921	0.883097	-0.355705	-0.292607	0.419421	-0.347259	-0.310688	0.380682	-0.351218	-0.252875	0.362156	-0.353868	-0.239891	0.399946	-0.353553	-0.424525	0.098075	-0.427403	-0.251097	0.026669	-0.356097	-0.210500	0.039950	-0.445616	-0.180897	0.028890	-0.442739	-0.203364	0.851347	-0.757162	-0.189186	0.791875	-0.764265	-0.125531	0.801440	-0.767574	-0.130717	0.861382	-0.761050	-0.315723	0.381451	-0.746853	-0.333510	0.345591	-0.741603	-0.275158	0.322940	-0.746117	-0.264477	0.365502	-0.751603	-0.442021	0.105156	-0.666140	-0.287442	0.025246	-0.760139	-0.226676	0.036500	-0.679074	-0.195942	0.026945	-0.687881	
877	4.3850	-0.282417	1.626337	-0.542743	-0.237618	1.601659	-0.783336	-0.181378	1.606703	-0.337980	-0.126033	1.575043	-0.567655	-0.109537	1.102121	-0.444299	-0.130947	1.108561	-0.675057	-0.177559	1.173806	-0.388877	-0.200927	1.169888	-0.714689	-0.296331	1.143434	-0.489005	-0.304860	1.148849	-0.594207	-0.306186	1.149789	-0.538420	-0.209202	0.871778	-0.359162	-0.197584	0.814740	-0.349342	-0.133434	0.826402	-0.344795	-0.138028	0.886871	-0.355389	-0.293841	0.423057	-0.347337	-0.311764	0.384263	-0.351141	-0.253823	0.365994	-0.353306	-0.241037	0.403834	-0.353059	-0.423177	0.101193	-0.426831	-0.250948	0.026700	-0.356173	-0.210401	0.039958	-0.445448	-0.181017	0.028942	-0.442714	-0.203356	0.855451	-0.757244	-0.189548	0.795885	-0.764374	-0.125842	0.805088	-0.767877	-0.130695	0.865041	-0.761311	-0.316517	0.384696	-0.746951	-0.334099	0.348746	-0.741740	-0.275680	0.326389	-0.746605	-0.265212	0.368994	-0.751989	-0.440674	0.108072	-0.666993	-0.287074	0.025391	-0.759966	-0.226619	0.036498	-0.679252	-0.195974	0.026953	-0.687848	
878	4.3900	-0.282459	1.630134	-0.542951	-0.237564	1.606032	-0.783320	-0.181647	1.611210	-0.338190	-0.126029	1.579319	-0.567710	-0.108357	1.106129	-0.444287	-0.129649	1.112491	-0.675048	-0.175702	1.178564	-0.389103	-0.198875	1.174473	-0.714676	-0.294959	1.147843	-0.488995	-0.303436	1.153176	-0.594472	-0.304868	1.154060	-0.538574	-0.209365	0.876010	-0.359115	-0.198087	0.818944	-0.349132	-0.133911	0.830237	-0.344480	-0.138124	0.890714	-0.355094	-0.295002	0.426767	-0.347420	-0.312746	0.387894	-0.351089	-0.254689	0.369891	-0.352788	-0.242093	0.407782	-0.352604	-0.421729	0.104409	-0.426302	-0.250792	0.026755	-0.356291	-0.210291	0.039971	-0.445268	-0.181138	0.029012	-0.442671	-0.203319	0.859631	-0.757339	-0.189865	0.799984	-0.764497	-0.126116	0.808828	-0.768163	-0.130654	0.868777	-0.761540	-0.317224	0.388008	-0.746978	-0.334584	0.351962	-0.741803	-0.276097	0.329924	-0.747042	-0.265854	0.372562	-0.752321	-0.439187	0.111069	-0.667742	-0.286676	0.025588	-0.759749	-0.226543	0.036503	-0.679427	-0.195986	0.026970	-0.687812	
879	4.3950	-0.282490	1.633955	-0.543171	-0.237492	1.610454	-0.783290	-0.181912	1.615752	-0.338438	-0.126029	1.583644	-0.567775	-0.107197	1.110182	-0.444294	-0.128385	1.116456	-0.675047	-0.173853	1.183389	-0.389346	-0.196854	1.179092	-0.714662	-0.293603	1.152353	-0.488997	-0.302008	1.157586	-0.594781	-0.303570	1.158440	-0.538743	-0.209500	0.880266	-0.359076	-0.198544	0.823185	-0.348932	-0.134345	0.834100	-0.344175	-0.138200	0.894596	-0.354825	-0.296077	0.430530	-0.347507	-0.313628	0.391570	-0.351071	-0.255467	0.373836	-0.352315	-0.243057	0.411770	-0.352183	-0.420188	0.107699	-0.425791	-0.250625	0.026845	-0.356452	-0.210174	0.039993	-0.445078	-0.181259	0.029101	-0.442604	-0.203243	0.863863	-0.757448	-0.190120	0.804145	-0.764626	-0.126333	0.812642	-0.768423	-0.130561	0.872591	-0.761759	-0.317839	0.391357	-0.746928	-0.334956	0.355210	-0.741796	-0.276397	0.333534	-0.747435	-0.266399	0.376184	-0.752597	-0.437565	0.114127	-0.668390	-0.286245	0.025846	-0.759502	-0.226452	0.036517	-0.679593	-0.195978	0.026998	-0.687777	
880	4.4000	-0.282503	1.637781	-0.543403	-0.237391	1.614895	-0.783247	-0.182166	1.620291	-0.338735	-0.126026	1.587995	-0.567849	-0.106065	1.114254	-0.444313	-0.127163	1.120438	-0.675045	-0.172039	1.188248	-0.389601	-0.194882	1.183734	-0.714654	-0.292270	1.156941	-0.489016	-0.300600	1.162068	-0.595112	-0.302299	1.162908	-0.538932	-0.209596	0.884510	-0.359040	-0.198944	0.827408	-0.348775	-0.134715	0.837947	-0.343879	-0.138240	0.898493	-0.354589	-0.297074	0.434316	-0.347590	-0.314406	0.395257	-0.351115	-0.256161	0.377786	-0.351902	-0.243927	0.415783	-0.351808	-0.418537	0.111035	-0.425335	-0.250441	0.026974	-0.356655	-0.210054	0.040026	-0.444881	-0.181375	0.029206	-0.442507	-0.203115	0.868118	-0.757567	-0.190301	0.808336	-0.764763	-0.126485	0.816507	-0.768651	-0.130410	0.876468	-0.761960	-0.318355	0.394726	-0.746811	-0.335222	0.358465	-0.741696	-0.276583	0.337178	-0.747784	-0.266849	0.379828	-0.752820	-0.435813	0.117238	-0.668958	-0.285786	0.026174	-0.759242	-0.226346	0.036544	-0.679744	-0.195949	0.027037	-0.687745	
881	4.4050	-0.282492	1.641592	-0.543649	-0.237251	1.619324	-0.783191	-0.182404	1.624784	-0.339100	-0.126015	1.592350	-0.567926	-0.104968	1.118321	-0.444344	-0.125988	1.124412	-0.675046	-0.170288	1.193109	-0.389867	-0.192972	1.188394	-0.714671	-0.290970	1.161576	-0.489052	-0.299212	1.166589	-0.595477	-0.301064	1.167443	-0.539134	-0.209641	0.888727	-0.359008	-0.199280	0.831584	-0.348706	-0.135007	0.841790	-0.343625	-0.138238	0.902383	-0.354388	-0.297982	0.438100	-0.347677	-0.315074	0.398931	-0.351193	-0.256757	0.381718	-0.351543	-0.244698	0.419785	-0.351476	-0.416794	0.114406	-0.424916	-0.250240	0.027146	-0.356900	-0.209935	0.040073	-0.444681	-0.181483	0.029323	-0.442377	-0.202929	0.872365	-0.757692	-0.190396	0.812528	-0.764912	-0.126552	0.820400	-0.768840	-0.130180	0.880393	-0.762151	-0.318770	0.398103	-0.746638	-0.335380	0.361701	-0.741506	-0.276663	0.340818	-0.748080	-0.267200	0.383476	-0.752989	-0.433946	0.120378	-0.669433	-0.285300	0.026564	-0.758968	-0.226222	0.036583	-0.679878	-0.195905	0.027087	-0.687723	
882	4.4100	-0.282447	1.645364	-0.543903	-0.237064	1.623717	-0.783121	-0.182636	1.629258	-0.339468	-0.125993	1.596682	-0.568003	-0.103909	1.122359	-0.444386	-0.124865	1.128354	-0.675046	-0.168616	1.197932	-0.390147	-0.191138	1.193057	-0.714710	-0.289710	1.166238	-0.489107	-0.297844	1.171116	-0.595876	-0.299864	1.172024	-0.539349	-0.209626	0.892890	-0.358987	-0.199544	0.835693	-0.348728	-0.135217	0.845600	-0.343416	-0.138184	0.906241	-0.354226	-0.298803	0.441854	-0.347781	-0.315637	0.402550	-0.351321	-0.257255	0.385624	-0.351235	-0.245365	0.423751	-0.351203	-0.414963	0.117767	-0.424524	-0.250013	0.027377	-0.357189	-0.209818	0.040135	-0.444481	-0.181576	0.029449	-0.442214	-0.202668	0.876582	-0.757830	-0.190395	0.816695	-0.765070	-0.126521	0.824290	-0.768979	-0.129891	0.884299	-0.762273	-0.319079	0.401467	-0.746419	-0.335429	0.364904	-0.741248	-0.276640	0.344431	-0.748326	-0.267464	0.387119	-0.753129	-0.431978	0.123527	-0.669823	-0.284782	0.027038	-0.758701	-0.226073	0.036638	-0.679987	-0.195843	0.027148	-0.687716	
